<svg xmlns="http://www.w3.org/2000/svg" viewBox="0 0 80 64">
  <path d="M22 24 58 18v20l-36 6z" fill="#f6dfa4"/>
  <path d="M22 44 58 38v6a4 4 0 0 1-3.3 3.9L26 52a4 4 0 0 1-4-4z" fill="#c99b52"/>
  <path d="M22 24 58 18c1 2.4-.8 4.4-3.4 4.9L26 28c-2.6.4-4.8-1.4-4-4z" fill="#fdf6ec"/>
  <circle cx="40" cy="14" r="4.4" fill="#d4485c"/>
  <circle cx="48" cy="12" r="3.2" fill="#8c2f4f"/>
  <path d="M34 20c2 4 10 4 14 1" stroke="#8c2f4f" stroke-width="2.4" fill="none" stroke-linecap="round"/>
  <ellipse cx="40" cy="56" rx="20" ry="3" fill="#efe8db"/>
</svg>
