<svg xmlns="http://www.w3.org/2000/svg" viewBox="0 0 80 64">
  <path d="M24 22c-2-6 4-12 10-10 2-4 10-4 12 0 6-2 12 4 10 10z" fill="#8fbf5f"/>
  <path d="M28 24c0-4 4-8 8-7 2-3 8-3 10 0 4-1 8 3 8 7z" fill="#a9d07e"/>
  <circle cx="32" cy="24" r="3.6" fill="#e2586b"/>
  <circle cx="48" cy="23" r="3.2" fill="#f2c14e"/>
  <path d="M14 28h52a26 20 0 0 1-52 0z" fill="#fdf6ec"/>
  <path d="M14 28h52a26 20 0 0 1-5 12H19a26 20 0 0 1-5-12z" fill="#f6f1e7"/>
  <ellipse cx="40" cy="54" rx="20" ry="3" fill="#efe8db"/>
</svg>
